<svg width="180" height="250" viewBox="0 0 180 250" fill="none" xmlns="http://www.w3.org/2000/svg">
  <defs>
    <linearGradient id="borahDeckGradient" x1="0%" y1="0%" x2="100%" y2="100%">
      <stop offset="0%" style="stop-color:#0891B2;stop-opacity:1" />
      <stop offset="50%" style="stop-color:#0E7490;stop-opacity:1" />
      <stop offset="100%" style="stop-color:#164E63;stop-opacity:1" />
    </linearGradient>
    <linearGradient id="waterCardGradient" x1="0%" y1="0%" x2="100%" y2="100%">
      <stop offset="0%" style="stop-color:#E0F7FA;stop-opacity:1" />
      <stop offset="100%" style="stop-color:#F0F9FF;stop-opacity:1" />
    </linearGradient>
  </defs>
  
  <rect x="5" y="5" width="170" height="240" rx="12" fill="url(#borahDeckGradient)" stroke="#0891B2" stroke-width="2"/>
  <rect x="10" y="10" width="160" height="230" rx="10" fill="none" stroke="rgba(255,255,255,0.2)" stroke-width="1"/>
  
  <rect x="15" y="15" width="150" height="30" rx="6" fill="rgba(0,0,0,0.3)"/>
  <text x="90" y="32" text-anchor="middle" fill="white" font-family="Arial, sans-serif" font-size="12" font-weight="bold">BORAH WATER DECK</text>
  <text x="90" y="42" text-anchor="middle" fill="rgba(255,255,255,0.8)" font-family="Arial, sans-serif" font-size="9">Tactical Water Control</text>
  
  <g transform="translate(25, 60)">
    <rect x="6" y="6" width="124" height="160" rx="8" fill="rgba(255,255,255,0.3)" stroke="rgba(255,255,255,0.5)" stroke-width="1"/>
    <rect x="3" y="3" width="124" height="160" rx="8" fill="rgba(255,255,255,0.5)" stroke="rgba(255,255,255,0.7)" stroke-width="1"/>
    <rect x="0" y="0" width="124" height="160" rx="8" fill="url(#waterCardGradient)" stroke="#0891B2" stroke-width="2"/>
    
    <rect x="8" y="8" width="108" height="20" rx="4" fill="rgba(8,145,178,0.1)"/>
    <text x="62" y="21" text-anchor="middle" fill="#0891B2" font-family="Arial, sans-serif" font-size="10" font-weight="bold">WATER AVATAR</text>
    
    <rect x="8" y="32" width="60" height="60" rx="6" fill="rgba(8,145,178,0.2)"/>
    <!-- Water droplet symbol -->
    <ellipse cx="38" cy="50" rx="8" ry="12" fill="#0891B2" opacity="0.8"/>
    <ellipse cx="38" cy="48" rx="3" ry="4" fill="rgba(255,255,255,0.8)"/>
    
    <rect x="72" y="32" width="44" height="12" rx="2" fill="rgba(8,145,178,0.1)"/>
    <text x="94" y="41" text-anchor="middle" fill="#0891B2" font-family="Arial, sans-serif" font-size="8">ATK: 5</text>
    <rect x="72" y="48" width="44" height="12" rx="2" fill="rgba(8,145,178,0.1)"/>
    <text x="94" y="57" text-anchor="middle" fill="#0891B2" font-family="Arial, sans-serif" font-size="8">HP: 18</text>
    <rect x="72" y="64" width="44" height="12" rx="2" fill="rgba(8,145,178,0.1)"/>
    <text x="94" y="73" text-anchor="middle" fill="#0891B2" font-family="Arial, sans-serif" font-size="8">BORAH</text>
    
    <rect x="8" y="96" width="108" height="40" rx="4" fill="rgba(8,145,178,0.1)"/>
    <text x="62" y="108" text-anchor="middle" fill="#164E63" font-family="Arial, sans-serif" font-size="8">Control battlefield with</text>
    <text x="62" y="118" text-anchor="middle" fill="#164E63" font-family="Arial, sans-serif" font-size="8">defensive strategies</text>
    <text x="62" y="128" text-anchor="middle" fill="#164E63" font-family="Arial, sans-serif" font-size="8">and healing powers</text>
    
    <rect x="8" y="142" width="20" height="12" rx="2" fill="rgba(8,145,178,0.8)"/>
    <text x="18" y="151" text-anchor="middle" fill="white" font-family="Arial, sans-serif" font-size="8" font-weight="bold">40</text>
  </g>
  
  <g transform="translate(15, 190)">
    <rect x="0" y="0" width="150" height="35" rx="6" fill="rgba(0,0,0,0.3)"/>
    <text x="10" y="15" fill="white" font-family="Arial, sans-serif" font-size="10">💧 Water Control Strategy</text>
    <text x="10" y="28" fill="rgba(255,255,255,0.8)" font-family="Arial, sans-serif" font-size="9">Healing & defensive tactics</text>
  </g>
  
  <g fill="rgba(8,145,178,0.6)">
    <circle cx="160" cy="30" r="2"/>
    <circle cx="20" cy="50" r="1.5"/>
    <circle cx="160" cy="220" r="2"/>
    <circle cx="20" cy="230" r="1.5"/>
  </g>
</svg>