<svg width="120" height="120" viewBox="0 0 120 120" fill="none" xmlns="http://www.w3.org/2000/svg">
  <defs>
    <radialGradient id="expansionGradient" cx="50%" cy="50%" r="50%">
      <stop offset="0%" style="stop-color:#8A2BE2;stop-opacity:1" />
      <stop offset="70%" style="stop-color:#4B0082;stop-opacity:1" />
      <stop offset="100%" style="stop-color:#2E003E;stop-opacity:1" />
    </radialGradient>
    <linearGradient id="orbGradient" x1="0%" y1="0%" x2="100%" y2="100%">
      <stop offset="0%" style="stop-color:#FFD700;stop-opacity:1" />
      <stop offset="100%" style="stop-color:#FF8C00;stop-opacity:1" />
    </linearGradient>
  </defs>
  
  <!-- Outer ring -->
  <circle cx="60" cy="60" r="55" fill="url(#expansionGradient)" stroke="#FFD700" stroke-width="3"/>
  
  <!-- Inner decorative ring -->
  <circle cx="60" cy="60" r="45" fill="none" stroke="rgba(255,215,0,0.3)" stroke-width="1"/>
  <circle cx="60" cy="60" r="35" fill="none" stroke="rgba(255,215,0,0.2)" stroke-width="1"/>
  
  <!-- Central orb -->
  <circle cx="60" cy="60" r="25" fill="url(#orbGradient)" stroke="#FFD700" stroke-width="2"/>
  
  <!-- Inner highlight -->
  <circle cx="55" cy="55" r="8" fill="rgba(255,255,255,0.6)" opacity="0.8"/>
  
  <!-- Decorative elements around the orb -->
  <g stroke="#FFD700" stroke-width="2" fill="none">
    <!-- Top -->
    <path d="M60 20 L65 30 L55 30 Z"/>
    <!-- Right -->
    <path d="M100 60 L90 55 L90 65 Z"/>
    <!-- Bottom -->
    <path d="M60 100 L55 90 L65 90 Z"/>
    <!-- Left -->
    <path d="M20 60 L30 65 L30 55 Z"/>
  </g>
  
  <!-- Corner stars -->
  <g fill="#FFD700" opacity="0.8">
    <path d="M25 25 L27 30 L32 30 L28 33 L29 38 L25 35 L21 38 L22 33 L18 30 L23 30 Z"/>
    <path d="M95 25 L97 30 L102 30 L98 33 L99 38 L95 35 L91 38 L92 33 L88 30 L93 30 Z"/>
    <path d="M25 95 L27 100 L32 100 L28 103 L29 108 L25 105 L21 108 L22 103 L18 100 L23 100 Z"/>
    <path d="M95 95 L97 100 L102 100 L98 103 L99 108 L95 105 L91 108 L92 103 L88 100 L93 100 Z"/>
  </g>
  
  <!-- Mystical particles -->
  <g fill="rgba(255,215,0,0.6)">
    <circle cx="40" cy="40" r="1.5"/>
    <circle cx="80" cy="40" r="1"/>
    <circle cx="40" cy="80" r="1"/>
    <circle cx="80" cy="80" r="1.5"/>
    <circle cx="30" cy="60" r="1"/>
    <circle cx="90" cy="60" r="1"/>
    <circle cx="60" cy="30" r="1"/>
    <circle cx="60" cy="90" r="1"/>
  </g>
</svg>