<svg width="120" height="120" viewBox="0 0 120 120" fill="none" xmlns="http://www.w3.org/2000/svg">
  <defs>
    <radialGradient id="fireGradient" cx="50%" cy="50%" r="50%">
      <stop offset="0%" style="stop-color:#FF6B35;stop-opacity:1" />
      <stop offset="70%" style="stop-color:#DC2626;stop-opacity:1" />
      <stop offset="100%" style="stop-color:#7F1D1D;stop-opacity:1" />
    </radialGradient>
    <linearGradient id="emblemGradient" x1="0%" y1="0%" x2="100%" y2="100%">
      <stop offset="0%" style="stop-color:#FED7AA;stop-opacity:1" />
      <stop offset="100%" style="stop-color:#FDBA74;stop-opacity:1" />
    </linearGradient>
  </defs>
  
  <circle cx="60" cy="60" r="55" fill="url(#fireGradient)" stroke="#DC2626" stroke-width="3"/>
  <circle cx="60" cy="60" r="45" fill="none" stroke="rgba(255,107,53,0.3)" stroke-width="1"/>
  
  <!-- Fire element symbol -->
  <g transform="translate(35, 35)">
    <!-- Flame shape -->
    <path d="M25 45 Q15 35 20 25 Q25 15 30 20 Q40 10 45 20 Q50 30 40 40 Q35 50 25 45 Z" 
          fill="url(#emblemGradient)" stroke="#DC2626" stroke-width="2"/>
    <!-- Inner flame -->
    <path d="M30 40 Q25 32 28 25 Q32 20 35 25 Q40 18 42 25 Q45 32 38 38 Q33 42 30 40 Z" 
          fill="rgba(255,255,255,0.8)"/>
  </g>
  
  <!-- Tribal markings -->
  <g stroke="#FED7AA" stroke-width="2" fill="none">
    <path d="M60 15 L65 25 L55 25 Z"/>
    <path d="M105 60 L95 55 L95 65 Z"/>
    <path d="M60 105 L55 95 L65 95 Z"/>
    <path d="M15 60 L25 65 L25 55 Z"/>
  </g>
  
  <!-- Corner emblems -->
  <g fill="#FED7AA" opacity="0.8">
    <circle cx="25" cy="25" r="4"/>
    <circle cx="95" cy="25" r="4"/>
    <circle cx="25" cy="95" r="4"/>
    <circle cx="95" cy="95" r="4"/>
  </g>
  
  <!-- Mystical particles -->
  <g fill="rgba(255,107,53,0.6)">
    <circle cx="40" cy="40" r="1.5"/>
    <circle cx="80" cy="40" r="1"/>
    <circle cx="40" cy="80" r="1"/>
    <circle cx="80" cy="80" r="1.5"/>
  </g>
</svg>