<svg width="120" height="120" viewBox="0 0 120 120" fill="none" xmlns="http://www.w3.org/2000/svg">
  <defs>
    <radialGradient id="waterGradient" cx="50%" cy="50%" r="50%">
      <stop offset="0%" style="stop-color:#06B6D4;stop-opacity:1" />
      <stop offset="70%" style="stop-color:#0891B2;stop-opacity:1" />
      <stop offset="100%" style="stop-color:#164E63;stop-opacity:1" />
    </radialGradient>
    <linearGradient id="waveGradient" x1="0%" y1="0%" x2="100%" y2="100%">
      <stop offset="0%" style="stop-color:#BAE6FD;stop-opacity:1" />
      <stop offset="100%" style="stop-color:#7DD3FC;stop-opacity:1" />
    </linearGradient>
  </defs>
  
  <circle cx="60" cy="60" r="55" fill="url(#waterGradient)" stroke="#0891B2" stroke-width="3"/>
  <circle cx="60" cy="60" r="45" fill="none" stroke="rgba(6,182,212,0.3)" stroke-width="1"/>
  
  <!-- Water element symbol -->
  <g transform="translate(35, 35)">
    <!-- Wave patterns -->
    <path d="M10 25 Q20 15 30 25 Q40 35 50 25" 
          fill="none" stroke="url(#waveGradient)" stroke-width="4" stroke-linecap="round"/>
    <path d="M10 35 Q20 25 30 35 Q40 45 50 35" 
          fill="none" stroke="url(#waveGradient)" stroke-width="4" stroke-linecap="round"/>
    <!-- Central droplet -->
    <ellipse cx="30" cy="20" rx="8" ry="12" fill="url(#waveGradient)" stroke="#0891B2" stroke-width="2"/>
    <ellipse cx="30" cy="18" rx="3" ry="4" fill="rgba(255,255,255,0.8)"/>
  </g>
  
  <!-- Tribal markings -->
  <g stroke="#BAE6FD" stroke-width="2" fill="none">
    <path d="M60 15 L65 25 L55 25 Z"/>
    <path d="M105 60 L95 55 L95 65 Z"/>
    <path d="M60 105 L55 95 L65 95 Z"/>
    <path d="M15 60 L25 65 L25 55 Z"/>
  </g>
  
  <!-- Corner emblems -->
  <g fill="#BAE6FD" opacity="0.8">
    <circle cx="25" cy="25" r="4"/>
    <circle cx="95" cy="25" r="4"/>
    <circle cx="25" cy="95" r="4"/>
    <circle cx="95" cy="95" r="4"/>
  </g>
  
  <!-- Mystical particles -->
  <g fill="rgba(6,182,212,0.6)">
    <circle cx="40" cy="40" r="1.5"/>
    <circle cx="80" cy="40" r="1"/>
    <circle cx="40" cy="80" r="1"/>
    <circle cx="80" cy="80" r="1.5"/>
  </g>
</svg>