<svg width="120" height="120" viewBox="0 0 120 120" fill="none" xmlns="http://www.w3.org/2000/svg">
  <defs>
    <radialGradient id="neutralGradient" cx="50%" cy="50%" r="50%">
      <stop offset="0%" style="stop-color:#8B5CF6;stop-opacity:1" />
      <stop offset="70%" style="stop-color:#7C3AED;stop-opacity:1" />
      <stop offset="100%" style="stop-color:#5B21B6;stop-opacity:1" />
    </radialGradient>
    <linearGradient id="crystalGradient" x1="0%" y1="0%" x2="100%" y2="100%">
      <stop offset="0%" style="stop-color:#DDD6FE;stop-opacity:1" />
      <stop offset="100%" style="stop-color:#C4B5FD;stop-opacity:1" />
    </linearGradient>
  </defs>
  
  <circle cx="60" cy="60" r="55" fill="url(#neutralGradient)" stroke="#7C3AED" stroke-width="3"/>
  <circle cx="60" cy="60" r="45" fill="none" stroke="rgba(139,92,246,0.3)" stroke-width="1"/>
  
  <!-- Mystical crystal symbol -->
  <g transform="translate(35, 35)">
    <!-- Crystal formation -->
    <polygon points="25,10 35,20 35,30 25,40 15,30 15,20" 
             fill="url(#crystalGradient)" stroke="#7C3AED" stroke-width="2"/>
    <!-- Inner facets -->
    <polygon points="25,15 30,20 30,25 25,30 20,25 20,20" 
             fill="rgba(255,255,255,0.6)"/>
    <!-- Mystical core -->
    <circle cx="25" cy="22.5" r="3" fill="rgba(255,255,255,0.9)"/>
  </g>
  
  <!-- Magical runes around the edge -->
  <g stroke="#DDD6FE" stroke-width="2" fill="rgba(221,214,254,0.3)">
    <circle cx="60" cy="20" r="3"/>
    <rect x="97" y="57" width="6" height="6" rx="1"/>
    <circle cx="60" cy="100" r="3"/>
    <rect x="17" y="57" width="6" height="6" rx="1"/>
  </g>
  
  <!-- Corner mystical symbols -->
  <g fill="#DDD6FE" opacity="0.8">
    <polygon points="25,20 30,25 25,30 20,25"/>
    <polygon points="95,20 100,25 95,30 90,25"/>
    <polygon points="25,90 30,95 25,100 20,95"/>
    <polygon points="95,90 100,95 95,100 90,95"/>
  </g>
  
  <!-- Mystical particles -->
  <g fill="rgba(139,92,246,0.6)">
    <circle cx="40" cy="40" r="1.5"/>
    <circle cx="80" cy="40" r="1"/>
    <circle cx="40" cy="80" r="1"/>
    <circle cx="80" cy="80" r="1.5"/>
  </g>
</svg>