<svg viewBox="0 0 150 200" xmlns="http://www.w3.org/2000/svg">
  <!-- Background -->
  <rect width="150" height="200" rx="10" fill="url(#firedeckGradient)"/>
  
  <!-- Definitions -->
  <defs>
    <linearGradient id="firedeckGradient" x1="0%" y1="0%" x2="100%" y2="100%">
      <stop offset="0%" style="stop-color:#dc2626;stop-opacity:1" />
      <stop offset="50%" style="stop-color:#ef4444;stop-opacity:1" />
      <stop offset="100%" style="stop-color:#b91c1c;stop-opacity:1" />
    </linearGradient>
    <filter id="deckGlow">
      <feGaussianBlur stdDeviation="3" result="coloredBlur"/>
      <feMerge> 
        <feMergeNode in="coloredBlur"/>
        <feMergeNode in="SourceGraphic"/>
      </feMerge>
    </filter>
  </defs>
  
  <!-- Border -->
  <rect x="3" y="3" width="144" height="194" rx="8" fill="none" stroke="#fff" stroke-width="1" opacity="0.7"/>
  
  <!-- Content Background -->
  <rect x="10" y="15" width="130" height="170" rx="8" fill="#000" opacity="0.3"/>
  
  <!-- Title Area -->
  <rect x="15" y="20" width="120" height="30" rx="5" fill="#000" opacity="0.4"/>
  <text x="75" y="40" text-anchor="middle" fill="#fff" font-family="Arial, sans-serif" font-size="12" font-weight="bold">FIRE TRIBE</text>
  
  <!-- Central Fire Symbol -->
  <circle cx="75" cy="100" r="30" fill="#000" opacity="0.2"/>
  <path d="M75 75 C70 85, 65 90, 70 100 C65 105, 70 115, 75 110 C80 115, 85 105, 80 100 C85 90, 80 85, 75 75 Z" 
        fill="#fbbf24" filter="url(#deckGlow)"/>
  <path d="M75 80 C72 88, 69 92, 72 98 C69 102, 72 108, 75 105 C78 108, 81 102, 78 98 C81 92, 78 88, 75 80 Z" 
        fill="#fff" opacity="0.9"/>
  
  <!-- Decorative Elements -->
  <circle cx="45" cy="70" r="4" fill="#fbbf24" opacity="0.8"/>
  <circle cx="105" cy="70" r="4" fill="#fbbf24" opacity="0.8"/>
  <circle cx="45" cy="130" r="4" fill="#fbbf24" opacity="0.8"/>
  <circle cx="105" cy="130" r="4" fill="#fbbf24" opacity="0.8"/>
  
  <!-- Stats Area -->
  <rect x="15" y="140" width="120" height="35" rx="5" fill="#000" opacity="0.4"/>
  <text x="75" y="155" text-anchor="middle" fill="#fff" font-family="Arial, sans-serif" font-size="9" font-weight="bold">STARTER DECK</text>
  <text x="75" y="168" text-anchor="middle" fill="#fff" font-family="Arial, sans-serif" font-size="8">40 Cards • Fire Focus</text>
  
  <!-- Element indicator -->
  <circle cx="30" cy="160" r="8" fill="#dc2626"/>
  <text x="30" y="165" text-anchor="middle" fill="#fff" font-family="Arial, sans-serif" font-size="10" font-weight="bold">🔥</text>
</svg>