<svg viewBox="0 0 150 200" xmlns="http://www.w3.org/2000/svg">
  <!-- Background -->
  <rect width="150" height="200" rx="10" fill="url(#waterdeckGradient)"/>
  
  <!-- Definitions -->
  <defs>
    <linearGradient id="waterdeckGradient" x1="0%" y1="0%" x2="100%" y2="100%">
      <stop offset="0%" style="stop-color:#0ea5e9;stop-opacity:1" />
      <stop offset="50%" style="stop-color:#0284c7;stop-opacity:1" />
      <stop offset="100%" style="stop-color:#0369a1;stop-opacity:1" />
    </linearGradient>
    <filter id="waterdeckGlow">
      <feGaussianBlur stdDeviation="3" result="coloredBlur"/>
      <feMerge> 
        <feMergeNode in="coloredBlur"/>
        <feMergeNode in="SourceGraphic"/>
      </feMerge>
    </filter>
  </defs>
  
  <!-- Border -->
  <rect x="3" y="3" width="144" height="194" rx="8" fill="none" stroke="#fff" stroke-width="1" opacity="0.7"/>
  
  <!-- Content Background -->
  <rect x="10" y="15" width="130" height="170" rx="8" fill="#000" opacity="0.3"/>
  
  <!-- Title Area -->
  <rect x="15" y="20" width="120" height="30" rx="5" fill="#000" opacity="0.4"/>
  <text x="75" y="40" text-anchor="middle" fill="#fff" font-family="Arial, sans-serif" font-size="12" font-weight="bold">WATER TRIBE</text>
  
  <!-- Central Water Symbol -->
  <circle cx="75" cy="100" r="30" fill="#000" opacity="0.2"/>
  <path d="M75 75 C65 85, 60 95, 65 105 C60 110, 65 120, 75 115 C85 120, 90 110, 85 105 C90 95, 85 85, 75 75 Z" 
        fill="#38bdf8" filter="url(#waterdeckGlow)"/>
  <path d="M75 80 C67 88, 63 96, 67 104 C63 108, 67 116, 75 112 C83 116, 87 108, 83 104 C87 96, 83 88, 75 80 Z" 
        fill="#fff" opacity="0.9"/>
  
  <!-- Water Waves -->
  <path d="M50 85 Q55 80, 60 85 Q65 90, 70 85 Q75 80, 80 85 Q85 90, 90 85 Q95 80, 100 85" 
        stroke="#38bdf8" stroke-width="2" fill="none" opacity="0.8"/>
  <path d="M50 115 Q55 110, 60 115 Q65 120, 70 115 Q75 110, 80 115 Q85 120, 90 115 Q95 110, 100 115" 
        stroke="#38bdf8" stroke-width="2" fill="none" opacity="0.8"/>
  
  <!-- Stats Area -->
  <rect x="15" y="140" width="120" height="35" rx="5" fill="#000" opacity="0.4"/>
  <text x="75" y="155" text-anchor="middle" fill="#fff" font-family="Arial, sans-serif" font-size="9" font-weight="bold">STARTER DECK</text>
  <text x="75" y="168" text-anchor="middle" fill="#fff" font-family="Arial, sans-serif" font-size="8">40 Cards • Water Focus</text>
  
  <!-- Element indicator -->
  <circle cx="30" cy="160" r="8" fill="#0ea5e9"/>
  <text x="30" y="165" text-anchor="middle" fill="#fff" font-family="Arial, sans-serif" font-size="10" font-weight="bold">💧</text>
</svg>