<svg width="200" height="280" viewBox="0 0 200 280" fill="none" xmlns="http://www.w3.org/2000/svg">
  <defs>
    <linearGradient id="expertGradient" x1="0%" y1="0%" x2="100%" y2="100%">
      <stop offset="0%" style="stop-color:#A855F7;stop-opacity:1" />
      <stop offset="50%" style="stop-color:#9333EA;stop-opacity:1" />
      <stop offset="100%" style="stop-color:#7C3AED;stop-opacity:1" />
    </linearGradient>
    <radialGradient id="expertGlow" cx="50%" cy="50%" r="50%">
      <stop offset="0%" style="stop-color:rgba(168,85,247,0.8);stop-opacity:1" />
      <stop offset="100%" style="stop-color:rgba(168,85,247,0);stop-opacity:0" />
    </radialGradient>
  </defs>
  
  <rect x="10" y="10" width="180" height="260" rx="15" fill="url(#expertGradient)" stroke="#9333EA" stroke-width="2"/>
  <rect x="15" y="15" width="170" height="250" rx="12" fill="none" stroke="rgba(255,255,255,0.3)" stroke-width="1"/>
  
  <rect x="20" y="20" width="160" height="40" rx="8" fill="rgba(0,0,0,0.3)"/>
  <text x="100" y="37" text-anchor="middle" fill="white" font-family="Arial, sans-serif" font-size="14" font-weight="bold">EXPERT PACK</text>
  <text x="100" y="52" text-anchor="middle" fill="rgba(255,255,255,0.8)" font-family="Arial, sans-serif" font-size="9">Superior Collection • High Rarity</text>
  
  <rect x="40" y="80" width="120" height="160" rx="8" fill="rgba(255,255,255,0.9)" stroke="#333" stroke-width="1"/>
  <rect x="42" y="82" width="116" height="156" rx="6" fill="rgba(248,240,255,0.8)" stroke="#666" stroke-width="1"/>
  <rect x="44" y="84" width="112" height="152" rx="4" fill="rgba(240,230,255,0.7)" stroke="#999" stroke-width="1"/>
  
  <!-- Enhanced sparkle effects for expert pack -->
  <circle cx="60" cy="100" r="4" fill="#A855F7" opacity="0.8"/>
  <circle cx="140" cy="120" r="3" fill="#A855F7" opacity="0.6"/>
  <circle cx="80" cy="200" r="3.5" fill="#A855F7" opacity="0.7"/>
  <circle cx="120" cy="180" r="2.5" fill="#A855F7" opacity="0.9"/>
  <circle cx="100" cy="150" r="2" fill="#FFD700" opacity="0.8"/>
  
  <!-- Mystical aura -->
  <circle cx="100" cy="160" r="30" fill="url(#expertGlow)" opacity="0.3"/>
  
  <text x="100" y="260" text-anchor="middle" fill="white" font-family="Arial, sans-serif" font-size="12" font-weight="bold">5 PREMIUM CARDS</text>
</svg>